<svg width="139" height="156" viewBox="0 0 139 156" fill="none" xmlns="http://www.w3.org/2000/svg">
<g clip-path="url(#clip0_61_7765)">
<path fill-rule="evenodd" clip-rule="evenodd" d="M133.11 37.8367C133.266 37.7789 133.417 37.7263 133.557 37.6774C134.312 37.4138 134.757 37.2586 134.069 36.9924C133.255 36.7004 129.229 35.7396 129.229 35.7396C126.82 35.231 124.845 32.3904 123.439 30.3672C122.941 29.6508 122.514 29.0369 122.165 28.6653C121.62 28.0968 121.145 27.3574 120.688 26.6453C120.004 25.5798 119.359 24.5752 118.576 24.2955C117.293 23.8243 116.587 24.0801 115.959 24.3077C115.102 24.6184 114.389 24.8767 112.55 23.1642C112.014 22.6679 111.456 22.0928 110.873 21.4927L110.873 21.4927C108.979 19.5422 106.83 17.3288 104.364 16.7083C101.14 15.8969 99.6393 19.178 99.6393 19.178C98.8975 20.3394 100.27 19.8677 101.033 19.2548C101.62 18.7831 102.041 19.5577 102.529 20.4581C102.676 20.7277 102.828 21.0085 102.993 21.2706C103.685 22.4098 104.426 23.2819 105.303 24.0471C106.179 24.8123 105.236 24.9855 104.443 24.6441C104.137 24.5036 103.764 24.1987 103.34 23.852C102.662 23.2974 101.854 22.6358 100.978 22.3692C99.5551 21.936 100.344 24.2633 102.278 25.0852C104.212 25.907 105.583 28.043 106.753 30.339C107.491 31.7749 107.767 33.4015 108.076 35.2265L108.076 35.2267C108.256 36.2898 108.448 37.4202 108.749 38.6195C109.455 41.4177 111.629 43.1104 114.655 45.4678L114.656 45.4683C115.127 45.8354 115.619 46.2187 116.13 46.6248C119.918 49.6385 122.168 52.5634 122.945 55.6095C123.398 57.3424 122.908 60.1099 121.333 62.4881C119.909 64.6625 115.983 66.6598 113.96 67.6634C113.117 68.0752 112.354 68.3192 111.834 68.4858C111.118 68.7147 110.86 68.7971 111.484 68.9674C112.564 69.3092 118.15 67.7017 120.929 66.301C123.708 64.9003 125.381 61.3897 125.577 57.9527C125.924 52.2785 121.393 46.3356 116.366 42.8017C111.362 39.2659 109.984 36.1736 109.868 35.0588C109.727 33.9221 110.419 32.7408 110.994 34.2007L111.057 34.3562C111.636 35.7762 112.303 37.4102 116.295 40.7741C120.088 43.9709 123.149 44.1322 124.708 44.2143C124.85 44.2218 124.979 44.2286 125.096 44.237C125.411 44.2641 125.723 44.2728 126.022 44.281H126.023C127.073 44.3101 127.974 44.335 128.375 45.1395C128.425 45.235 128.505 45.3765 128.609 45.5604C129.63 47.3644 132.96 53.2469 132.735 59.7565C132.59 63.8113 131.733 66.7763 129.07 70.464C126.405 74.128 121.045 75.8604 116.918 76.5825C113.301 77.2152 110.077 76.8054 108.409 76.5933C108.173 76.5634 107.969 76.5374 107.798 76.5189C106.421 76.3451 106.063 75.4893 107.029 75.6013C108.618 75.8115 111.555 75.4763 113.617 75.241C114.161 75.1789 114.644 75.1238 115.025 75.0875C115.334 75.0621 115.548 74.7574 115.497 74.4267L115.152 72.5651C115.107 72.3057 114.852 72.1114 114.567 72.1348L114.536 72.1374C113.464 72.2257 110.552 72.4658 105.631 70.5251C104.795 70.1911 103.932 69.8271 103.047 69.4534L103.047 69.4533C99.3475 67.8919 95.2489 66.162 91 65.7499V65.236L80.2048 58.946C81.9914 56.4313 84.243 53.7365 85.953 52.0243C88.7379 49.2356 94.6156 39.2552 95.1104 37.7074C95.4458 36.6066 95.5891 37.5961 95.7498 38.7062C95.8148 39.1549 95.8826 39.6233 95.9671 39.9814C96.2608 41.2251 96.6318 40.5009 96.6318 40.5009C96.6318 40.5009 98.2156 35.323 98.0683 28.8761C97.8973 22.4311 95.8055 16.1919 87.1117 8.79701C79.3982 2.25542 70.4625 4.54239 67.4751 5.30699C67.0863 5.4065 66.7982 5.48022 66.6267 5.50534C65.5716 5.65989 66.2122 4.08971 66.7461 2.78107C66.9657 2.24277 67.1672 1.74873 67.2253 1.43718C67.2542 1.2612 67.2851 1.09352 67.3137 0.938675L67.3137 0.938399C67.4582 0.154558 67.5421 -0.300136 67.001 0.163817C66.3548 0.743229 63.5182 3.77536 63.5182 3.77536C61.908 5.63597 58.5894 5.93004 56.1851 6.14308C55.2947 6.22199 54.5296 6.28978 54.0233 6.42192C53.2577 6.62173 52.3795 6.667 51.5368 6.71045C50.3172 6.77333 49.1719 6.83238 48.5496 7.35039C47.508 8.24719 47.3746 9.00485 47.2561 9.67862C47.0949 10.5945 46.9609 11.3553 44.6102 12.0999C43.9306 12.3176 43.1753 12.5155 42.3874 12.7219C39.7974 13.4004 36.856 14.1709 35.102 16.0394C32.8144 18.4761 34.8326 21.4919 34.8326 21.4919C35.4371 22.734 35.7 21.277 35.5962 20.3048C35.4953 19.5312 36.3731 19.5608 37.3861 19.595H37.3862C37.675 19.6047 37.9747 19.6148 38.2659 19.6068C39.5787 19.5707 40.662 19.362 41.7534 18.9613C42.8448 18.5605 42.4913 19.4986 41.8175 20.0325C41.5508 20.2277 41.1116 20.3989 40.6114 20.5939C39.7998 20.9102 38.8276 21.2891 38.1703 21.9351C37.1079 22.9794 39.4675 23.4552 41.1083 22.172C42.7729 20.8869 45.2519 20.7788 47.7743 20.9063C49.381 20.9876 50.9133 21.5797 52.6254 22.2414L52.6254 22.2414C53.6011 22.6184 54.6351 23.018 55.7745 23.3585C58.4589 24.1606 60.9223 23.1267 64.359 21.6843L64.3593 21.6842C64.9416 21.4398 65.5518 21.1837 66.1958 20.9228C70.6409 19.122 74.2113 18.6132 77.1763 19.4699C78.8667 19.9529 80.9812 21.8124 82.1999 24.4154C83.3279 26.7867 83.0754 31.2809 82.9026 33.5439C82.8402 34.4899 82.6689 35.2815 82.5509 35.8266C82.3868 36.5842 82.326 36.8654 82.8043 36.4226C83.6269 35.6612 85.043 29.8991 85.2346 26.7017C85.4302 23.5518 83.2698 20.2607 80.4782 18.3133C75.8605 15.1046 68.5732 16.0864 63.0957 18.7137C57.6182 21.341 54.3338 20.9651 53.3146 20.4987C52.2955 20.0322 51.6236 18.8435 53.1262 19.0788L53.2137 19.0926C54.6949 19.3256 56.402 19.5941 61.293 17.7376C65.8055 16.0183 67.4785 13.4253 68.3384 12.0925C68.4244 11.9592 68.5023 11.8385 68.5741 11.7325C68.7422 11.4785 68.8957 11.2181 69.0441 10.9663C69.5904 10.0393 70.0677 9.22932 70.9567 9.28792C71.0623 9.29267 71.2233 9.29412 71.4332 9.296C73.4678 9.3143 80.1017 9.37396 85.4856 12.8779C88.8472 15.0655 90.9256 17.3586 92.7306 21.5641C94.5138 25.7953 93.3235 31.3953 91.8836 35.413C90.6197 38.997 88.614 41.6702 87.6165 42.9996C87.4963 43.1598 87.3908 43.3004 87.303 43.4208C86.486 44.5406 85.5674 44.4247 86.1484 43.6354C87.0752 42.3619 88.2148 39.7095 89.0416 37.7851L89.0417 37.7849C89.2886 37.2101 89.5077 36.7002 89.6848 36.3115C89.8277 36.0126 89.6559 35.6679 89.3609 35.5726L87.6312 34.9014C87.3601 34.8041 87.1084 34.9444 86.9835 35.17L86.9662 35.2075C86.5059 36.208 85.2721 38.8895 81.2001 42.2241C80.4956 42.8008 79.7521 43.3852 78.989 43.985L78.9888 43.9852C75.687 46.5804 72.0185 49.4639 69.5576 53.2578L59.4078 59.1717C57.985 56.176 56.5889 52.3917 55.8897 49.7832C54.8545 45.9211 49.1616 35.7437 48.0819 34.5407C47.3111 33.6974 48.23 34.0608 49.2554 34.4665C49.664 34.6281 50.0894 34.7964 50.4317 34.8977C51.6331 35.2535 51.2181 34.5699 51.2181 34.5699C51.2181 34.5699 47.5655 30.5881 41.9795 27.5308C36.3934 24.4735 30.0728 23.2468 19.5506 27.3653C10.2827 30.9994 7.93234 40.0867 7.14394 43.1349C7.03927 43.5396 6.96214 43.8378 6.9 44.0027C6.51032 45.0142 5.4869 43.6818 4.62918 42.5651C4.27182 42.0999 3.94323 41.6721 3.70121 41.4668C3.56959 41.3552 3.4455 41.246 3.33061 41.1449C2.7272 40.6139 2.37711 40.3058 2.51767 41.0378C2.685 41.9092 3.94772 45.92 3.94772 45.92C4.76911 48.2761 3.42718 51.3691 2.45041 53.6205C2.08703 54.4581 1.77419 55.1791 1.64208 55.7024C1.43838 56.4602 1.06697 57.243 0.7092 57.9971C0.166066 59.142 -0.345623 60.2205 -0.19136 61.0443C0.0723446 62.4075 0.653079 62.8989 1.17048 63.3367C1.87753 63.935 2.46632 64.4331 1.96621 66.9193C1.82598 67.6246 1.63461 68.386 1.43507 69.18C0.76764 71.8356 0.00882088 74.8548 0.766647 77.3524C1.72728 80.5986 5.3114 80.2561 5.3114 80.2561C6.65573 80.313 5.54802 79.3515 4.63367 78.9961C3.92547 78.703 4.36505 77.944 4.8761 77.0616C5.02627 76.8024 5.18261 76.5324 5.31782 76.2605C5.93885 75.0851 6.30436 74.0025 6.49573 72.8385C6.6871 71.6745 7.34757 72.4335 7.44361 73.3108C7.47992 73.6424 7.41476 74.1124 7.34044 74.6483C7.21819 75.53 7.07115 76.5905 7.31025 77.5081C7.69471 78.9836 9.21542 77.1123 8.92274 75.0072C8.63006 72.9022 9.73347 70.6106 11.0387 68.446C11.8773 67.0789 13.1026 66.0133 14.4695 64.8248C15.2687 64.1297 16.1164 63.3926 16.9634 62.5285C18.9482 60.5036 19.2462 57.7588 19.6652 53.8979L19.6652 53.8977C19.7308 53.2937 19.7993 52.6624 19.8777 52.0023C20.4592 47.1461 21.756 43.7143 23.9186 41.5031C25.1317 40.2551 27.7305 39.2759 30.5676 39.4494C33.1413 39.6205 36.8352 42.0679 38.7108 43.349C39.5106 43.8858 40.116 44.4429 40.5252 44.8195C41.0745 45.3251 41.2704 45.5054 41.1088 44.8743C40.825 43.7494 36.6102 39.6224 33.9808 37.9009C31.3751 36.1774 27.5713 36.4662 24.5402 38.0072C19.5815 40.544 16.9266 47.5323 16.5257 53.7133C16.1268 59.918 14.2448 62.6324 13.3689 63.3264C12.4929 64.0204 11.1287 64.013 12.0567 62.7884L12.1367 62.6808C13.0448 61.4604 14.0916 60.0534 14.8494 54.8558C15.5763 49.9819 14.1565 47.2109 13.4123 45.7584L13.4122 45.7583C13.3355 45.6085 13.2659 45.4728 13.2067 45.3502C13.0679 45.0631 12.9163 44.7886 12.7705 44.5243C12.2499 43.5811 11.8014 42.7683 12.26 41.9832C12.3098 41.898 12.3792 41.7713 12.4682 41.6087C13.4299 39.8531 16.6849 33.9103 22.297 30.7996C25.7759 28.8869 28.7289 28.1417 33.1971 28.6595C37.6633 29.1535 41.8803 33.0172 44.613 36.2851C47.0906 39.2481 48.4238 42.4034 49.0691 43.9307L49.0691 43.9308L49.0694 43.9314C49.1357 44.0884 49.1948 44.2282 49.2471 44.3487C49.8079 45.6423 49.2725 46.404 48.8617 45.4809C48.207 43.979 46.4076 41.548 45.1515 39.8511L45.1515 39.851L45.1514 39.8509C44.8237 39.4082 44.5331 39.0155 44.3094 38.7023C44.1215 38.4546 43.7573 38.3889 43.5135 38.6242L42.1301 39.8384C41.93 40.0223 41.9078 40.3351 42.0462 40.563C42.6689 41.4448 44.3749 43.8642 45.2698 49.221C45.426 50.1475 45.5692 51.1146 45.7163 52.1077C46.3454 56.3555 47.0452 61.0812 49.1284 65.1612L49 65.236V76.9788C46.037 76.6076 42.7542 75.9362 40.5226 75.2799C36.7481 74.1788 25.33 73.8018 23.7794 74.1446C22.6719 74.3722 23.443 73.7637 24.3065 73.0825C24.6535 72.8086 25.0155 72.523 25.2763 72.2752C26.1861 71.411 25.398 71.4279 25.398 71.4279C25.398 71.4279 20.2014 72.525 14.8023 75.8157C9.40328 79.1063 5.14092 84.002 3.27507 95.351C1.59668 105.31 7.92319 112.107 10.1029 114.449C10.4081 114.777 10.632 115.017 10.7413 115.167C11.405 116.027 9.74637 116.227 8.3667 116.392C7.79842 116.461 7.27746 116.523 6.98565 116.624C6.82428 116.684 6.66871 116.738 6.52472 116.788C5.7779 117.048 5.3425 117.2 6.02446 117.445C6.8379 117.736 10.8442 118.747 10.8442 118.747C13.2219 119.266 15.139 122.056 16.5308 124.083C17.0497 124.838 17.4956 125.487 17.8652 125.873C18.4004 126.442 18.8695 127.185 19.3219 127.901C19.9993 128.975 20.6394 129.989 21.4084 130.27C22.692 130.751 23.3978 130.497 24.0242 130.272C24.8793 129.964 25.5866 129.709 27.4143 131.451C27.9323 131.941 28.4715 132.504 29.0335 133.09C30.9198 135.059 33.0639 137.297 35.5328 137.96C38.7592 138.795 40.2854 135.536 40.2854 135.536C41.0272 134.374 39.6546 134.846 38.8916 135.459C38.3001 135.915 37.8781 135.126 37.3982 134.229C37.2575 133.966 37.1119 133.694 36.9555 133.441C36.2638 132.302 35.546 131.428 34.6697 130.663C33.7935 129.898 34.7599 129.723 35.5554 130.088C35.8683 130.231 36.2511 130.551 36.6857 130.913C37.3561 131.472 38.1498 132.134 39 132.412C40.4231 132.845 39.6594 130.54 37.7477 129.692C35.836 128.845 34.4642 126.709 33.3184 124.411C32.5773 122.956 32.311 121.318 32.0138 119.49C31.8419 118.433 31.6597 117.312 31.3694 116.126C30.6927 113.349 28.5774 111.662 25.65 109.328C25.1416 108.922 24.6087 108.497 24.0545 108.044C20.2861 104.981 18.0599 102.054 17.307 99.0058C16.8773 97.2709 17.3912 94.5014 18.9659 92.1233C20.4156 89.9707 24.3679 87.9951 26.3687 87.0173C27.2339 86.5945 28.0159 86.3574 28.5397 86.1986C29.2272 85.9902 29.4696 85.9166 28.8708 85.7351C27.7901 85.3933 22.201 86.9532 19.4176 88.3064C16.6362 89.6834 14.9336 93.1246 14.6684 96.5913C14.2502 102.271 18.7619 108.264 23.7434 111.825C28.727 115.411 30.058 118.507 30.1736 119.622C30.2674 120.762 29.5988 121.941 29.0243 120.482L28.9785 120.365C28.4173 118.934 27.7766 117.3 23.7926 113.879C20.036 110.672 17.0049 110.475 15.4233 110.372C15.2719 110.362 15.1337 110.353 15.0095 110.342C14.7066 110.316 14.4073 110.306 14.1186 110.297H14.1185C13.0526 110.261 12.1335 110.23 11.7277 109.416C11.6684 109.289 11.5579 109.084 11.4099 108.81C10.3252 106.8 7.22638 101.057 7.50693 94.7399C7.67577 90.6832 8.55619 87.7162 11.2708 84.0721C13.9617 80.43 19.3253 78.7451 23.4543 78.0468C27.1048 77.4294 30.3579 77.8919 32.0151 78.1274C32.2323 78.1583 32.4221 78.1853 32.5817 78.2054C33.9596 78.3792 34.319 79.2587 33.3509 79.123C31.7917 78.8985 28.9359 79.1983 26.8798 79.4142L26.8796 79.4142C26.2861 79.4765 25.7592 79.5318 25.3494 79.5655C25.0405 79.5909 24.8263 79.8956 24.8774 80.2263L25.1981 82.0898C25.2433 82.3492 25.4985 82.5436 25.7619 82.5458C26.8074 82.4599 29.7301 82.2196 34.656 84.2308C35.5322 84.584 36.4364 84.9713 37.365 85.369L37.3657 85.3693C40.9516 86.9051 44.9 88.5962 49 89.0841V89.736L59.3346 95.7714C57.5543 98.4677 55.1624 101.483 53.381 103.36C50.6494 106.216 44.9973 116.322 44.5501 117.865C44.2317 118.965 44.0692 117.978 43.8882 116.878C43.8149 116.433 43.7386 115.97 43.6478 115.619C43.3304 114.377 42.9613 115.125 42.9613 115.125C42.9613 115.125 41.4764 120.343 41.7663 126.778C42.0561 133.213 44.2886 139.417 53.1568 146.606C60.9827 152.951 69.8362 150.492 72.8311 149.66L72.8313 149.66C73.23 149.549 73.5249 149.467 73.6997 149.439C74.7421 149.269 74.1513 150.821 73.6524 152.131C73.4396 152.689 73.2435 153.204 73.1982 153.523C73.173 153.681 73.1467 153.833 73.1222 153.974C72.9778 154.806 72.894 155.289 73.4462 154.794C74.0924 154.215 76.8262 151.095 76.8262 151.095C78.4106 149.189 81.7507 148.819 84.1523 148.553C85.0172 148.457 85.7604 148.375 86.256 148.239C87.0098 148.032 87.8724 147.968 88.7009 147.907C89.9294 147.815 91.083 147.73 91.6961 147.194C92.7145 146.28 92.8286 145.521 92.9302 144.845C93.0686 143.925 93.1841 143.157 95.5327 142.357C96.2135 142.12 96.9732 141.902 97.7661 141.675C100.332 140.939 103.244 140.104 104.952 138.209C107.188 135.729 105.103 132.767 105.103 132.767C104.451 131.528 104.237 133.005 104.367 133.999C104.484 134.762 103.621 134.757 102.622 134.752C102.32 134.751 102.006 134.749 101.703 134.769C100.394 134.852 99.2869 135.063 98.2212 135.485C97.1298 135.886 97.4595 134.95 98.1333 134.416C98.3946 134.209 98.8377 134.027 99.3429 133.819C100.14 133.491 101.092 133.099 101.727 132.446C102.764 131.38 100.408 130.952 98.793 132.257C97.1541 133.564 94.681 133.743 92.1645 133.687C90.5855 133.637 89.0693 133.092 87.3802 132.486C86.3753 132.125 85.3092 131.742 84.1323 131.429C81.4123 130.704 78.9493 131.806 75.4952 133.353C74.9426 133.6 74.3647 133.859 73.7563 134.124C69.3686 136.039 65.7802 136.621 62.8191 135.812C61.1307 135.353 58.9745 133.569 57.6864 130.995C56.5129 128.652 56.6704 124.165 56.7699 121.885C56.8123 120.914 56.972 120.107 57.0802 119.561C57.2263 118.823 57.2784 118.56 56.8206 119.01C56.0238 119.793 54.7304 125.593 54.6081 128.761C54.5095 131.926 56.7116 135.142 59.5706 137.036C64.2755 140.142 71.5254 138.996 76.9456 136.254C82.3659 133.512 85.6443 133.816 86.6853 134.257C87.7263 134.698 88.4219 135.884 86.8976 135.675C86.8378 135.667 86.7778 135.66 86.7174 135.652C85.2385 135.468 83.505 135.251 78.7682 137.18C74.2994 138.978 72.687 141.602 71.8392 142.981C71.7513 143.124 71.6716 143.254 71.5978 143.368C71.4392 143.62 71.2946 143.877 71.1545 144.126C70.6218 145.073 70.1556 145.901 69.2448 145.882C69.1385 145.879 68.976 145.881 68.7637 145.884C66.7259 145.91 60.1027 145.995 54.6462 142.608C51.243 140.496 49.0972 138.256 47.2209 134.057C45.3466 129.881 46.4141 124.243 47.7551 120.186C48.9567 116.576 50.9008 113.845 51.8635 112.492C51.9767 112.333 52.0763 112.193 52.1596 112.073C52.9509 110.931 53.8694 111.047 53.3122 111.834C52.3322 113.229 51.1379 116.246 50.3629 118.205L50.3627 118.205C50.2063 118.601 50.067 118.953 49.9499 119.24C49.8308 119.536 50.0027 119.881 50.2976 119.977L52.0234 120.6C52.2946 120.698 52.5462 120.557 52.6454 120.31L52.6537 120.29C53.0811 119.283 54.2321 116.571 58.2745 113.125C58.9654 112.532 59.6956 111.931 60.4455 111.313C63.6906 108.639 67.3031 105.663 69.6776 101.812L70 102L80.1991 96.0437C81.6248 99.0668 83.0294 102.933 83.7056 105.58C84.719 109.468 90.3427 119.675 91.4224 120.878C92.2021 121.746 91.2568 121.36 90.2181 120.935L90.218 120.935C89.8184 120.771 89.4049 120.602 89.0706 120.497C87.8692 120.141 88.2842 120.825 88.2842 120.825C88.2842 120.825 91.8912 124.834 97.4554 127.917C103.02 131 109.344 132.274 119.872 128.227C129.15 124.66 131.55 115.621 132.367 112.544C132.477 112.13 132.558 111.823 132.624 111.653C132.995 110.648 134.006 111.974 134.86 113.095C135.222 113.569 135.556 114.007 135.801 114.215C135.932 114.326 136.056 114.436 136.171 114.537C136.775 115.068 137.125 115.376 136.984 114.644C136.817 113.772 135.6 109.734 135.6 109.734C134.783 107.339 136.185 104.185 137.187 101.934L137.187 101.933C137.538 101.144 137.839 100.465 137.979 99.9694C138.183 99.209 138.561 98.4268 138.924 97.6729C139.473 96.535 139.991 95.4618 139.836 94.6256C139.592 93.257 139.011 92.7622 138.493 92.3203C137.788 91.7194 137.198 91.2165 137.726 88.7467C137.868 88.0642 138.058 87.3272 138.256 86.5578C138.941 83.8978 139.725 80.851 138.999 78.3315C138.062 75.0834 134.498 75.3764 134.498 75.3764C133.151 75.2957 134.235 76.2592 135.151 76.6384C135.872 76.9367 135.404 77.7179 134.869 78.61C134.724 78.8517 134.574 79.1015 134.442 79.3521C133.844 80.5256 133.479 81.6082 133.287 82.7722C133.096 83.9362 132.436 83.1771 132.363 82.298C132.327 81.9617 132.394 81.4834 132.471 80.9381C132.595 80.0607 132.743 79.0098 132.52 78.0986C132.16 76.6212 130.615 78.4945 130.882 80.5777C131.175 82.6827 130.072 84.9743 128.743 87.1409C127.902 88.4935 126.676 89.5538 125.302 90.7413L125.302 90.7414C124.5 91.4351 123.647 92.1723 122.792 93.0365C120.813 95.0368 120.494 97.7369 120.051 101.492L120.051 101.492C119.975 102.137 119.895 102.812 119.803 103.521C119.174 108.381 117.851 111.791 115.712 114C114.499 115.248 111.875 116.206 109.057 115.983C106.482 115.788 102.81 113.315 100.934 112.034C100.162 111.499 99.5718 110.953 99.1666 110.578L99.1666 110.578C98.6003 110.054 98.3954 109.865 98.5598 110.507C98.8179 111.61 103.037 115.784 105.644 117.531C108.228 119.281 112.058 119.014 115.091 117.496C120.075 114.981 122.779 108.013 123.204 101.83C123.629 95.6471 125.533 92.9069 126.436 92.2585C127.314 91.5883 128.676 91.572 127.75 92.8203L127.688 92.9024C126.774 94.1063 125.717 95.4981 124.91 100.757C124.151 105.699 125.578 108.482 126.305 109.9C126.34 109.968 126.374 110.034 126.405 110.096C126.431 110.147 126.456 110.197 126.48 110.245C126.617 110.541 126.77 110.825 126.916 111.098L126.917 111.098C127.421 112.038 127.859 112.853 127.402 113.613C127.338 113.716 127.244 113.883 127.121 114.103C126.063 115.98 122.824 121.728 117.288 124.732C113.807 126.621 110.829 127.344 106.361 126.826C101.89 126.285 97.6971 122.419 94.9882 119.149C92.5672 116.227 91.2567 113.098 90.605 111.543L90.6047 111.542C90.5274 111.358 90.4593 111.195 90.3997 111.058C89.8389 109.764 90.3981 109.001 90.7851 109.926C91.4065 111.395 93.1363 113.764 94.3756 115.462C94.7354 115.955 95.0539 116.391 95.2919 116.732C95.4797 116.98 95.8439 117.045 96.0877 116.81L97.4948 115.594C97.695 115.41 97.7172 115.097 97.5788 114.869C96.9561 113.988 95.2481 111.544 94.377 106.186C94.2315 105.282 94.0978 104.341 93.9606 103.375C93.343 99.027 92.6551 94.1843 90.5012 90.0273L91 89.736V77.8736C94.0568 78.2046 97.5265 78.8715 99.8653 79.5394C103.638 80.6167 115.07 80.873 116.621 80.5302C117.717 80.2878 116.97 80.8906 116.117 81.5785L116.116 81.5786C115.763 81.8636 115.392 82.1632 115.126 82.4233C114.216 83.2876 115.006 83.2944 115.006 83.2944C115.006 83.2944 120.199 82.1498 125.57 78.8136C130.941 75.4774 135.152 70.5381 136.945 59.1711C138.519 49.1882 132.132 42.4615 129.934 40.1473L129.934 40.1468C129.63 39.8262 129.406 39.5903 129.294 39.4422C128.605 38.5564 130.29 38.3347 131.669 38.1532C132.215 38.0813 132.713 38.0158 132.997 37.9178L133.11 37.8367ZM80 71.7567L78.9827 71.171L75.4049 69.1113L70.0002 66L70 66L68.822 66.6782L65.9996 68.3031L60.0002 71.7567V72.3841C60.0001 72.3841 60.0001 72.3841 60 72.3841V76.3786C60.0001 76.3786 60.0001 76.3785 60.0002 76.3785V83.2433L61.216 83.9432L63.7165 85.3826L70 89L70.0002 89L70.3273 88.8117L73.6508 86.8985L80 83.2433V71.7567Z" fill="#212121"/>
</g>
<defs>
<clipPath id="clip0_61_7765">
<rect width="138.092" height="155.02" fill="white" transform="translate(0.893066)"/>
</clipPath>
</defs>
</svg>
