<svg width="275" height="233" viewBox="0 0 275 233" fill="none" xmlns="http://www.w3.org/2000/svg">
<g clip-path="url(#clip0_185_1141)">
<path fill-rule="evenodd" clip-rule="evenodd" d="M190.11 37.8367C190.266 37.7789 190.417 37.7263 190.557 37.6774C191.312 37.4138 191.757 37.2586 191.069 36.9924C190.255 36.7004 186.229 35.7396 186.229 35.7396C183.82 35.231 181.845 32.3904 180.439 30.3672C179.941 29.6508 179.514 29.0369 179.165 28.6653C178.62 28.0968 178.145 27.3574 177.688 26.6453C177.004 25.5798 176.359 24.5752 175.576 24.2955C174.293 23.8243 173.587 24.0801 172.959 24.3077C172.102 24.6184 171.389 24.8767 169.55 23.1642C169.014 22.6679 168.456 22.0928 167.873 21.4927L167.873 21.4927C165.979 19.5422 163.83 17.3288 161.364 16.7083C158.14 15.8969 156.639 19.178 156.639 19.178C155.898 20.3394 157.27 19.8677 158.033 19.2548C158.62 18.7831 159.041 19.5577 159.529 20.4581C159.676 20.7277 159.828 21.0085 159.993 21.2706C160.685 22.4098 161.426 23.2819 162.303 24.0471C163.179 24.8123 162.236 24.9855 161.443 24.6441C161.137 24.5036 160.764 24.1987 160.34 23.852C159.662 23.2974 158.854 22.6358 157.978 22.3692C156.555 21.936 157.344 24.2633 159.278 25.0852C161.212 25.907 162.583 28.043 163.753 30.339C164.491 31.7749 164.767 33.4015 165.076 35.2265L165.076 35.2267C165.256 36.2898 165.448 37.4202 165.749 38.6195C166.455 41.4177 168.629 43.1104 171.655 45.4678L171.656 45.4683C172.127 45.8354 172.619 46.2187 173.13 46.6248C176.918 49.6385 179.168 52.5634 179.945 55.6095C180.398 57.3424 179.908 60.1099 178.333 62.4881C176.909 64.6625 172.983 66.6598 170.96 67.6634C170.117 68.0752 169.354 68.3192 168.834 68.4858C168.118 68.7147 167.86 68.7971 168.484 68.9674C169.564 69.3092 175.15 67.7017 177.929 66.301C180.708 64.9003 182.381 61.3897 182.577 57.9527C182.924 52.2785 178.393 46.3356 173.366 42.8017C168.362 39.2659 166.984 36.1736 166.868 35.0588C166.727 33.9221 167.419 32.7408 167.994 34.2007L168.057 34.3562C168.636 35.7762 169.303 37.4102 173.295 40.7741C177.088 43.9709 180.149 44.1322 181.708 44.2143C181.85 44.2218 181.979 44.2286 182.096 44.237C182.411 44.2641 182.723 44.2728 183.022 44.281H183.023C184.073 44.3101 184.974 44.335 185.375 45.1395C185.425 45.235 185.505 45.3765 185.609 45.5604C186.63 47.3644 189.96 53.2469 189.735 59.7565C189.59 63.8113 188.733 66.7763 186.07 70.464C183.405 74.128 178.045 75.8604 173.918 76.5825C170.301 77.2152 167.077 76.8054 165.409 76.5933C165.173 76.5634 164.969 76.5374 164.798 76.5189C163.421 76.3451 163.063 75.4893 164.029 75.6013C165.618 75.8115 168.555 75.4763 170.617 75.241C171.161 75.1789 171.644 75.1238 172.025 75.0875C172.334 75.0621 172.548 74.7574 172.497 74.4267L172.152 72.5651C172.107 72.3057 171.852 72.1114 171.567 72.1348L171.536 72.1374C170.464 72.2257 167.552 72.4658 162.631 70.5251C161.795 70.1911 160.932 69.8271 160.047 69.4534L160.047 69.4533C156.347 67.8919 152.249 66.162 148 65.7499V65.236L137.205 58.946C138.991 56.4313 141.243 53.7365 142.953 52.0243C145.738 49.2356 151.616 39.2552 152.11 37.7074C152.446 36.6066 152.589 37.5961 152.75 38.7062C152.815 39.1549 152.883 39.6233 152.967 39.9814C153.261 41.2251 153.632 40.5009 153.632 40.5009C153.632 40.5009 155.216 35.323 155.068 28.8761C154.897 22.4311 152.805 16.1919 144.112 8.79701C136.398 2.25542 127.463 4.54239 124.475 5.30699C124.086 5.4065 123.798 5.48022 123.627 5.50534C122.572 5.65989 123.212 4.08971 123.746 2.78107C123.966 2.24277 124.167 1.74873 124.225 1.43718C124.254 1.2612 124.285 1.09352 124.314 0.938675L124.314 0.938399C124.458 0.154558 124.542 -0.300136 124.001 0.163817C123.355 0.743229 120.518 3.77536 120.518 3.77536C118.908 5.63597 115.589 5.93004 113.185 6.14308C112.295 6.22199 111.53 6.28978 111.023 6.42192C110.258 6.62173 109.379 6.667 108.537 6.71045C107.317 6.77333 106.172 6.83238 105.55 7.35039C104.508 8.24719 104.375 9.00485 104.256 9.67862C104.095 10.5945 103.961 11.3553 101.61 12.0999C100.931 12.3176 100.175 12.5155 99.3874 12.7219C96.7974 13.4004 93.856 14.1709 92.102 16.0394C89.8144 18.4761 91.8326 21.4919 91.8326 21.4919C92.4371 22.734 92.7 21.277 92.5962 20.3048C92.4953 19.5312 93.3731 19.5608 94.3861 19.595H94.3862C94.675 19.6047 94.9747 19.6148 95.2659 19.6068C96.5787 19.5707 97.662 19.362 98.7534 18.9613C99.8448 18.5605 99.4913 19.4986 98.8175 20.0325C98.5508 20.2277 98.1116 20.3989 97.6114 20.5939C96.7998 20.9102 95.8276 21.2891 95.1703 21.9351C94.1079 22.9794 96.4675 23.4552 98.1083 22.172C99.7729 20.8869 102.252 20.7788 104.774 20.9063C106.381 20.9876 107.913 21.5797 109.625 22.2414L109.625 22.2414C110.601 22.6184 111.635 23.018 112.775 23.3585C115.459 24.1606 117.922 23.1267 121.359 21.6843L121.359 21.6842C121.942 21.4398 122.552 21.1837 123.196 20.9228C127.641 19.122 131.211 18.6132 134.176 19.4699C135.867 19.9529 137.981 21.8124 139.2 24.4154C140.328 26.7867 140.075 31.2809 139.903 33.5439C139.84 34.4899 139.669 35.2815 139.551 35.8266C139.387 36.5842 139.326 36.8654 139.804 36.4226C140.627 35.6612 142.043 29.8991 142.235 26.7017C142.43 23.5518 140.27 20.2607 137.478 18.3133C132.861 15.1046 125.573 16.0864 120.096 18.7137C114.618 21.341 111.334 20.9651 110.315 20.4987C109.295 20.0322 108.624 18.8435 110.126 19.0788L110.214 19.0926C111.695 19.3256 113.402 19.5941 118.293 17.7376C122.806 16.0183 124.478 13.4253 125.338 12.0925C125.424 11.9592 125.502 11.8385 125.574 11.7325C125.742 11.4785 125.896 11.2181 126.044 10.9663C126.59 10.0393 127.068 9.22932 127.957 9.28792C128.062 9.29267 128.223 9.29412 128.433 9.296C130.468 9.3143 137.102 9.37396 142.486 12.8779C145.847 15.0655 147.926 17.3586 149.731 21.5641C151.514 25.7953 150.324 31.3953 148.884 35.413C147.62 38.997 145.614 41.6702 144.616 42.9996C144.496 43.1598 144.391 43.3004 144.303 43.4208C143.486 44.5406 142.567 44.4247 143.148 43.6354C144.075 42.3619 145.215 39.7095 146.042 37.7851L146.042 37.7849C146.289 37.2101 146.508 36.7002 146.685 36.3115C146.828 36.0126 146.656 35.6679 146.361 35.5726L144.631 34.9014C144.36 34.8041 144.108 34.9444 143.983 35.17L143.966 35.2075C143.506 36.208 142.272 38.8895 138.2 42.2241C137.496 42.8008 136.752 43.3852 135.989 43.985L135.989 43.9852C132.687 46.5804 129.019 49.4639 126.558 53.2578L116.408 59.1717C114.985 56.176 113.589 52.3917 112.89 49.7832C111.855 45.9211 106.162 35.7437 105.082 34.5407C104.311 33.6974 105.23 34.0608 106.255 34.4665C106.664 34.6281 107.089 34.7964 107.432 34.8977C108.633 35.2535 108.218 34.5699 108.218 34.5699C108.218 34.5699 104.566 30.5881 98.9795 27.5308C93.3934 24.4735 87.0728 23.2468 76.5506 27.3653C67.2827 30.9994 64.9323 40.0867 64.1439 43.1349C64.0393 43.5396 63.9621 43.8378 63.9 44.0027C63.5103 45.0142 62.4869 43.6818 61.6292 42.5651C61.2718 42.0999 60.9432 41.6721 60.7012 41.4668C60.5696 41.3552 60.4455 41.246 60.3306 41.1449C59.7272 40.6139 59.3771 40.3058 59.5177 41.0378C59.685 41.9092 60.9477 45.92 60.9477 45.92C61.7691 48.2761 60.4272 51.3691 59.4504 53.6205C59.087 54.4581 58.7742 55.1791 58.6421 55.7024C58.4384 56.4602 58.067 57.243 57.7092 57.9971C57.1661 59.142 56.6544 60.2205 56.8086 61.0443C57.0723 62.4075 57.6531 62.8989 58.1705 63.3367C58.8775 63.935 59.4663 64.4331 58.9662 66.9193C58.826 67.6246 58.6346 68.386 58.4351 69.18C57.7676 71.8356 57.0088 74.8548 57.7666 77.3524C58.7273 80.5986 62.3114 80.2561 62.3114 80.2561C63.6557 80.313 62.548 79.3515 61.6337 78.9961C60.9255 78.703 61.3651 77.944 61.8761 77.0616C62.0263 76.8024 62.1826 76.5324 62.3178 76.2605C62.9388 75.0851 63.3044 74.0025 63.4957 72.8385C63.6871 71.6745 64.3476 72.4335 64.4436 73.3108C64.4799 73.6424 64.4148 74.1124 64.3404 74.6483C64.2182 75.53 64.0711 76.5905 64.3103 77.5081C64.6947 78.9836 66.2154 77.1123 65.9227 75.0072C65.6301 72.9022 66.7335 70.6106 68.0387 68.446C68.8773 67.0789 70.1026 66.0133 71.4695 64.8248C72.2687 64.1297 73.1164 63.3926 73.9634 62.5285C75.9482 60.5036 76.2462 57.7588 76.6652 53.8979L76.6652 53.8977C76.7308 53.2937 76.7993 52.6624 76.8777 52.0023C77.4592 47.1461 78.756 43.7143 80.9186 41.5031C82.1317 40.2551 84.7305 39.2759 87.5676 39.4494C90.1413 39.6205 93.8352 42.0679 95.7108 43.349C96.5106 43.8858 97.116 44.4429 97.5252 44.8195C98.0745 45.3251 98.2704 45.5054 98.1088 44.8743C97.825 43.7494 93.6102 39.6224 90.9808 37.9009C88.3751 36.1774 84.5713 36.4662 81.5402 38.0072C76.5815 40.544 73.9266 47.5323 73.5257 53.7133C73.1268 59.918 71.2448 62.6324 70.3689 63.3264C69.4929 64.0204 68.1287 64.013 69.0567 62.7884L69.1367 62.6808C70.0448 61.4604 71.0916 60.0534 71.8494 54.8558C72.5763 49.9819 71.1565 47.2109 70.4123 45.7584L70.4122 45.7583C70.3355 45.6085 70.2659 45.4728 70.2067 45.3502C70.0679 45.0631 69.9163 44.7886 69.7705 44.5243C69.2499 43.5811 68.8014 42.7683 69.26 41.9832C69.3098 41.898 69.3792 41.7713 69.4682 41.6087C70.4299 39.8531 73.6849 33.9103 79.297 30.7996C82.7759 28.8869 85.7289 28.1417 90.1971 28.6595C94.6633 29.1535 98.8803 33.0172 101.613 36.2851C104.091 39.2481 105.424 42.4034 106.069 43.9307L106.069 43.9308L106.069 43.9314C106.136 44.0884 106.195 44.2282 106.247 44.3487C106.808 45.6423 106.272 46.404 105.862 45.4809C105.207 43.979 103.408 41.548 102.152 39.8511L102.151 39.851L102.151 39.8509C101.824 39.4082 101.533 39.0155 101.309 38.7023C101.122 38.4546 100.757 38.3889 100.514 38.6242L99.1301 39.8384C98.93 40.0223 98.9078 40.3351 99.0462 40.563C99.6689 41.4448 101.375 43.8642 102.27 49.221C102.426 50.1475 102.569 51.1146 102.716 52.1077C103.345 56.3555 104.045 61.0812 106.128 65.1612L106 65.236V76.9788C103.037 76.6076 99.7542 75.9362 97.5226 75.2799C93.7481 74.1788 82.33 73.8018 80.7794 74.1446C79.6719 74.3722 80.443 73.7637 81.3065 73.0825C81.6535 72.8086 82.0155 72.523 82.2763 72.2752C83.1861 71.411 82.398 71.4279 82.398 71.4279C82.398 71.4279 77.2014 72.525 71.8023 75.8157C66.4033 79.1063 62.1409 84.002 60.2751 95.351C58.5967 105.31 64.9232 112.107 67.1029 114.449C67.4081 114.777 67.632 115.017 67.7413 115.167C68.405 116.027 66.7464 116.227 65.3667 116.392C64.7984 116.461 64.2775 116.523 63.9856 116.624C63.8243 116.684 63.6687 116.738 63.5247 116.788C62.7779 117.048 62.3425 117.2 63.0245 117.445C63.8379 117.736 67.8442 118.747 67.8442 118.747C70.2219 119.266 72.139 122.056 73.5308 124.083C74.0497 124.838 74.4956 125.487 74.8652 125.873C75.4004 126.442 75.8695 127.185 76.3219 127.901C76.9993 128.975 77.6394 129.989 78.4084 130.27C79.692 130.751 80.3978 130.497 81.0242 130.272C81.8793 129.964 82.5866 129.709 84.4143 131.451C84.9323 131.941 85.4715 132.504 86.0335 133.09C87.9198 135.059 90.0639 137.297 92.5328 137.96C95.7592 138.795 97.2854 135.536 97.2854 135.536C98.0272 134.374 96.6546 134.846 95.8916 135.459C95.3001 135.915 94.8781 135.126 94.3982 134.229C94.2575 133.966 94.1119 133.694 93.9555 133.441C93.2638 132.302 92.546 131.428 91.6697 130.663C90.7935 129.898 91.7599 129.723 92.5554 130.088C92.8683 130.231 93.2511 130.551 93.6857 130.913C94.3561 131.472 95.1498 132.134 96 132.412C97.4231 132.845 96.6594 130.54 94.7477 129.692C92.836 128.845 91.4642 126.709 90.3184 124.411C89.5773 122.956 89.311 121.318 89.0138 119.49C88.8419 118.433 88.6597 117.312 88.3694 116.126C87.6927 113.349 85.5774 111.662 82.65 109.328C82.1416 108.922 81.6087 108.497 81.0545 108.044C77.2861 104.981 75.0599 102.054 74.307 99.0058C73.8773 97.2709 74.3912 94.5014 75.9659 92.1233C77.4156 89.9707 81.3679 87.9951 83.3687 87.0173C84.2339 86.5945 85.0159 86.3574 85.5397 86.1986C86.2272 85.9902 86.4696 85.9166 85.8708 85.7351C84.7901 85.3933 79.201 86.9532 76.4176 88.3064C73.6362 89.6834 71.9336 93.1246 71.6684 96.5913C71.2502 102.271 75.7619 108.264 80.7434 111.825C85.727 115.411 87.058 118.507 87.1736 119.622C87.2674 120.762 86.5988 121.941 86.0243 120.482L85.9785 120.365C85.4173 118.934 84.7766 117.3 80.7926 113.879C77.036 110.672 74.0049 110.475 72.4233 110.372C72.2719 110.362 72.1337 110.353 72.0095 110.342C71.7066 110.316 71.4073 110.306 71.1186 110.297H71.1185C70.0526 110.261 69.1335 110.23 68.7277 109.416C68.6684 109.289 68.5579 109.084 68.4099 108.81C67.3252 106.8 64.2264 101.057 64.5069 94.7399C64.6758 90.6832 65.5562 87.7162 68.2708 84.0721C70.9617 80.43 76.3253 78.7451 80.4543 78.0468C84.1048 77.4294 87.3579 77.8919 89.0151 78.1274C89.2323 78.1583 89.4221 78.1853 89.5817 78.2054C90.9596 78.3792 91.319 79.2587 90.3509 79.123C88.7917 78.8985 85.9359 79.1983 83.8798 79.4142L83.8796 79.4142C83.2861 79.4765 82.7592 79.5318 82.3494 79.5655C82.0405 79.5909 81.8263 79.8956 81.8774 80.2263L82.1981 82.0898C82.2433 82.3492 82.4985 82.5436 82.7619 82.5458C83.8074 82.4599 86.7301 82.2196 91.656 84.2308C92.5322 84.584 93.4364 84.9713 94.365 85.369L94.3657 85.3693C97.9516 86.9051 101.9 88.5962 106 89.0841V89.736L116.335 95.7714C114.554 98.4677 112.162 101.483 110.381 103.36C107.649 106.216 101.997 116.322 101.55 117.865C101.232 118.965 101.069 117.978 100.888 116.878C100.815 116.433 100.739 115.97 100.648 115.619C100.33 114.377 99.9613 115.125 99.9613 115.125C99.9613 115.125 98.4764 120.343 98.7663 126.778C99.0561 133.213 101.289 139.417 110.157 146.606C117.983 152.951 126.836 150.492 129.831 149.66L129.831 149.66C130.23 149.549 130.525 149.467 130.7 149.439C131.742 149.269 131.151 150.821 130.652 152.131C130.44 152.689 130.244 153.204 130.198 153.523C130.173 153.681 130.147 153.833 130.122 153.974C129.978 154.806 129.894 155.289 130.446 154.794C131.092 154.215 133.826 151.095 133.826 151.095C135.411 149.189 138.751 148.819 141.152 148.553C142.017 148.457 142.76 148.375 143.256 148.239C144.01 148.032 144.872 147.968 145.701 147.907C146.929 147.815 148.083 147.73 148.696 147.194C149.715 146.28 149.829 145.521 149.93 144.845C150.069 143.925 150.184 143.157 152.533 142.357C153.214 142.12 153.973 141.902 154.766 141.675C157.332 140.939 160.244 140.104 161.952 138.209C164.188 135.729 162.103 132.767 162.103 132.767C161.451 131.528 161.237 133.005 161.367 133.999C161.484 134.762 160.621 134.757 159.622 134.752C159.32 134.751 159.006 134.749 158.703 134.769C157.394 134.852 156.287 135.063 155.221 135.485C154.13 135.886 154.459 134.95 155.133 134.416C155.395 134.209 155.838 134.027 156.343 133.819C157.14 133.491 158.092 133.099 158.727 132.446C159.764 131.38 157.408 130.952 155.793 132.257C154.154 133.564 151.681 133.743 149.164 133.687C147.585 133.637 146.069 133.092 144.38 132.486C143.375 132.125 142.309 131.742 141.132 131.429C138.412 130.704 135.949 131.806 132.495 133.353C131.943 133.6 131.365 133.859 130.756 134.124C126.369 136.039 122.78 136.621 119.819 135.812C118.131 135.353 115.975 133.569 114.686 130.995C113.513 128.652 113.67 124.165 113.77 121.885C113.812 120.914 113.972 120.107 114.08 119.561C114.226 118.823 114.278 118.56 113.821 119.01C113.024 119.793 111.73 125.593 111.608 128.761C111.51 131.926 113.712 135.142 116.571 137.036C121.275 140.142 128.525 138.996 133.946 136.254C139.366 133.512 142.644 133.816 143.685 134.257C144.726 134.698 145.422 135.884 143.898 135.675C143.838 135.667 143.778 135.66 143.717 135.652C142.239 135.468 140.505 135.251 135.768 137.18C131.299 138.978 129.687 141.602 128.839 142.981C128.751 143.124 128.672 143.254 128.598 143.368C128.439 143.62 128.295 143.877 128.155 144.126C127.622 145.073 127.156 145.901 126.245 145.882C126.138 145.879 125.976 145.881 125.764 145.884C123.726 145.91 117.103 145.995 111.646 142.608C108.243 140.496 106.097 138.256 104.221 134.057C102.347 129.881 103.414 124.243 104.755 120.186C105.957 116.576 107.901 113.845 108.863 112.492C108.977 112.333 109.076 112.193 109.16 112.073C109.951 110.931 110.869 111.047 110.312 111.834C109.332 113.229 108.138 116.246 107.363 118.205L107.363 118.205C107.206 118.601 107.067 118.953 106.95 119.24C106.831 119.536 107.003 119.881 107.298 119.977L109.023 120.6C109.295 120.698 109.546 120.557 109.645 120.31L109.654 120.29C110.081 119.283 111.232 116.571 115.275 113.125C115.965 112.532 116.696 111.931 117.446 111.313C120.691 108.639 124.303 105.663 126.678 101.812L127 102L137.199 96.0437C138.625 99.0668 140.029 102.933 140.706 105.58C141.719 109.468 147.343 119.675 148.422 120.878C149.202 121.746 148.257 121.36 147.218 120.935L147.218 120.935C146.818 120.771 146.405 120.602 146.071 120.497C144.869 120.141 145.284 120.825 145.284 120.825C145.284 120.825 148.891 124.834 154.455 127.917C160.02 131 166.344 132.274 176.872 128.227C186.15 124.66 188.55 115.621 189.367 112.544C189.477 112.13 189.558 111.823 189.624 111.653C189.995 110.648 191.006 111.974 191.86 113.095C192.222 113.569 192.556 114.007 192.801 114.215C192.932 114.326 193.056 114.436 193.171 114.537C193.775 115.068 194.125 115.376 193.984 114.644C193.817 113.772 192.6 109.734 192.6 109.734C191.783 107.339 193.185 104.185 194.187 101.934L194.187 101.933C194.538 101.144 194.839 100.465 194.979 99.9694C195.183 99.209 195.561 98.4268 195.924 97.6729C196.473 96.535 196.991 95.4618 196.836 94.6256C196.592 93.257 196.011 92.7622 195.493 92.3203C194.788 91.7194 194.198 91.2165 194.726 88.7467C194.868 88.0642 195.058 87.3272 195.256 86.5578C195.941 83.8978 196.725 80.851 195.999 78.3315C195.062 75.0834 191.498 75.3764 191.498 75.3764C190.151 75.2957 191.235 76.2592 192.151 76.6384C192.872 76.9367 192.404 77.7179 191.869 78.61C191.724 78.8517 191.574 79.1015 191.442 79.3521C190.844 80.5256 190.479 81.6082 190.287 82.7722C190.096 83.9362 189.436 83.1771 189.363 82.298C189.327 81.9617 189.394 81.4834 189.471 80.9381C189.595 80.0607 189.743 79.0098 189.52 78.0986C189.16 76.6212 187.615 78.4945 187.882 80.5777C188.175 82.6827 187.072 84.9743 185.743 87.1409C184.902 88.4935 183.676 89.5538 182.302 90.7413L182.302 90.7414C181.5 91.4351 180.647 92.1723 179.792 93.0365C177.813 95.0368 177.494 97.7369 177.051 101.492L177.051 101.492C176.975 102.137 176.895 102.812 176.803 103.521C176.174 108.381 174.851 111.791 172.712 114C171.499 115.248 168.875 116.206 166.057 115.983C163.482 115.788 159.81 113.315 157.934 112.034C157.162 111.499 156.572 110.953 156.167 110.578L156.167 110.578C155.6 110.054 155.395 109.865 155.56 110.507C155.818 111.61 160.037 115.784 162.644 117.531C165.228 119.281 169.058 119.014 172.091 117.496C177.075 114.981 179.779 108.013 180.204 101.83C180.629 95.6471 182.533 92.9069 183.436 92.2585C184.314 91.5883 185.676 91.572 184.75 92.8203L184.688 92.9024C183.774 94.1063 182.717 95.4981 181.91 100.757C181.151 105.699 182.578 108.482 183.305 109.9C183.34 109.968 183.374 110.034 183.405 110.096C183.431 110.147 183.456 110.197 183.48 110.245C183.617 110.541 183.77 110.825 183.916 111.098L183.917 111.098C184.421 112.038 184.859 112.853 184.402 113.613C184.338 113.716 184.244 113.883 184.121 114.103C183.063 115.98 179.824 121.728 174.288 124.732C170.807 126.621 167.829 127.344 163.361 126.826C158.89 126.285 154.697 122.419 151.988 119.149C149.567 116.227 148.257 113.098 147.605 111.543L147.605 111.542C147.527 111.358 147.459 111.195 147.4 111.058C146.839 109.764 147.398 109.001 147.785 109.926C148.406 111.395 150.136 113.764 151.376 115.462C151.735 115.955 152.054 116.391 152.292 116.732C152.48 116.98 152.844 117.045 153.088 116.81L154.495 115.594C154.695 115.41 154.717 115.097 154.579 114.869C153.956 113.988 152.248 111.544 151.377 106.186C151.231 105.282 151.098 104.341 150.961 103.375C150.343 99.027 149.655 94.1843 147.501 90.0273L148 89.736V77.8736C151.057 78.2046 154.526 78.8715 156.865 79.5394C160.638 80.6167 172.07 80.873 173.621 80.5302C174.717 80.2878 173.97 80.8906 173.117 81.5785L173.116 81.5786C172.763 81.8636 172.392 82.1632 172.126 82.4233C171.216 83.2876 172.006 83.2944 172.006 83.2944C172.006 83.2944 177.199 82.1498 182.57 78.8136C187.941 75.4774 192.152 70.5381 193.945 59.1711C195.519 49.1882 189.132 42.4615 186.934 40.1473L186.934 40.1468C186.63 39.8262 186.406 39.5903 186.294 39.4422C185.605 38.5564 187.29 38.3347 188.669 38.1532C189.215 38.0813 189.713 38.0158 189.997 37.9178L190.11 37.8367ZM137 71.7567L135.983 71.171L132.405 69.1113L127 66L127 66L125.822 66.6782L123 68.3031L117 71.7567V72.3841C117 72.3841 117 72.3841 117 72.3841V76.3786C117 76.3786 117 76.3785 117 76.3785V83.2433L118.216 83.9432L120.716 85.3826L127 89L127 89L127.327 88.8117L130.651 86.8985L137 83.2433V71.7567Z" fill="#212121"/>
</g>
<path d="M227.46 233L247.291 187.609H254.631L274.462 233H266.092L261.52 222.119H240.209L235.573 233H227.46ZM243.106 215.101H258.623L250.832 197.073L243.106 215.101Z" fill="#1C1C1C"/>
<path d="M175.137 233V187.93H195.225C200.891 187.93 205.334 189.604 208.231 192.437C210.613 194.884 211.965 198.232 211.965 202.16V202.288C211.965 209.693 207.523 214.135 201.278 215.938L213.446 233H204.046L192.972 217.29H183.057V233H175.137ZM183.057 210.272H194.646C200.312 210.272 203.917 207.31 203.917 202.739V202.61C203.917 197.781 200.441 195.142 194.582 195.142H183.057V210.272Z" fill="#1C1C1C"/>
<path d="M115.116 233V187.93H131.92C146.085 187.93 155.872 197.653 155.872 210.336V210.465C155.872 223.149 146.085 233 131.92 233H115.116ZM131.92 195.142H123.035V225.789H131.92C141.385 225.789 147.566 219.415 147.566 210.594V210.465C147.566 201.644 141.385 195.142 131.92 195.142Z" fill="#1C1C1C"/>
<path d="M72.633 233V215.23L54.7339 187.93H64.1341L76.6892 207.825L89.4375 187.93H98.5158L80.6167 215.037V233H72.633Z" fill="#1C1C1C"/>
<path d="M0.794434 233V187.93H8.7138V206.666H30.2184V187.93H38.1378V233H30.2184V214.006H8.7138V233H0.794434Z" fill="#1C1C1C"/>
<defs>
<clipPath id="clip0_185_1141">
<rect width="138.092" height="155.02" fill="white" transform="translate(57.8931)"/>
</clipPath>
</defs>
</svg>
